:SAMPLES-PER-SECOND 30
:FULLY-SPECIFIED
:DEGREES
17
root  -79.9114 37.1671 1.24456 -135.435 77.0795 -135.068
RightUpLeg  -27.9825 2.14488 10.5744
RightLeg  28.4284 1.37112 -4.89233
RightFoot  -0.5606 0.496635 -4.50596
RightToes  3.49245e-010 -3.18055e-015 8.94531e-016
Spine  -0.011887 -7.43597 -0.575282
Spine1  10.6439 -10.8555 13.824
HEad  -13.874 7.49645 1.46714
LeftShoulder1  0 -2.69403e-036 -1.28585e-037
LeftArm  19.4295 3.67515 -83.8122
LeftForeArm  -42.8889 -25.701 16.8896
LeftHand  0.66993 5.2232 2.17691
RightShoulder  -2.48481e-017 0 -8.08114e-019
RightArm  -6.01421 -57.3932 76.0436
RightForeArm  -12.4005 11.7567 2.54503
RightHand  1.47124 -13.422 -2.42634
LeftUpLeg  0.333325 -6.7979 13.1113
LeftLeg  53.6907 -5.78975 8.76774
LeftFoot  18.7387 1.25993 -4.17275
LeftToes  2.65573e-010 7.17151e-011 4.62952e-011
18
root  -77.8779 37.7333 1.21035 -137.537 77.244 -136.963
RightUpLeg  -23.421 3.77544 10.4424
RightLeg  27.056 -0.463586 -5.60691
RightFoot  -3.0042 0.31641 -3.55966
RightToes  3.49245e-010 -3.18055e-015 8.94531e-016
Spine  -0.335537 -6.90774 -0.0783607
Spine1  10.1368 -9.96891 12.6929
HEad  -11.1463 7.10421 1.98348
LeftShoulder1  0 -2.69403e-036 -1.28585e-037
LeftArm  9.15711 10.4698 -85.668
LeftForeArm  -29.1867 -21.1955 6.86482
LeftHand  0.678703 5.01423 0.267921
RightShoulder  -2.48481e-017 0 -8.08114e-019
RightArm  -2.22372 -51.3622 81.798
RightForeArm  -21.94 15.8941 -2.33243
RightHand  1.63546 -13.5378 -4.78622
LeftUpLeg  -6.25607 -7.56246 11.1316
LeftLeg  57.8442 -8.0468 6.61351
LeftFoot  14.4569 1.06611 -4.11995
LeftToes  2.65573e-010 7.17151e-011 4.62952e-011
19
root  -75.8946 38.2312 1.10095 -138.197 77.754 -137.54
RightUpLeg  -18.7908 4.195 10.4915
RightLeg  25.0703 -1.16533 -5.45717
RightFoot  -4.99389 0.257727 -3.60043
RightToes  3.49245e-010 -3.18055e-015 8.94531e-016
Spine  -1.13476 -5.92575 1.63337
Spine1  10.1968 -8.38182 10.6049
HEad  -9.06307 5.50389 1.95994
LeftShoulder1  0 -2.69403e-036 -1.28585e-037
LeftArm  -5.26022 17.8203 -86.6909
LeftForeArm  -14.4255 -14.829 -0.935993
LeftHand  0.698364 5.07899 -0.236029
RightShoulder  -2.48481e-017 0 -8.08114e-019
RightArm  11.1949 -46.081 85.9528
RightForeArm  -41.8716 20.0203 -13.238
RightHand  1.69031 -13.3425 -6.11977
LeftUpLeg  -12.4192 -8.05222 9.16256
LeftLeg  58.5839 -10.0382 3.14964
LeftFoot  12.2648 1.03897 -4.39605
LeftToes  2.65573e-010 7.17151e-011 4.62952e-011
20
root  -73.8898 38.6535 0.999469 -135.628 79.3558 -134.791
RightUpLeg  -13.6336 5.20188 10.3296
RightLeg  22.217 -1.3603 -4.7807
RightFoot  -6.62694 0.223696 -3.89915
RightToes  3.49245e-010 -3.18055e-015 8.94531e-016
Spine  -2.38394 -4.08742 3.66631
Spine1  11.1178 -5.78978 7.40286
HEad  -8.23943 3.23972 2.18773
LeftShoulder1  0 -2.69403e-036 -1.28585e-037
LeftArm  -12.8753 25.2177 -86.9982
LeftForeArm  -10.2483 -10.3247 -3.85077
LeftHand  0.763999 5.60333 0.0798314
RightShoulder  -2.48481e-017 0 -8.08114e-019
RightArm  15.4962 -40.9018 87.3022
RightForeArm  -50.1011 22.9247 -21.6639
RightHand  1.71043 -13.2438 -6.69779
LeftUpLeg  -17.3567 -6.6985 7.57188
LeftLeg  55.9188 -11.0623 0.924505
LeftFoot  9.57585 1.00556 -4.80317
LeftToes  2.65573e-010 7.17151e-011 4.62952e-011
